<?xml version="1.0"?>

<!DOCTYPE svg PUBLIC '-//W3C//DTD SVG 1.0//EN' 'http://www.w3.org/TR/2001/REC-SVG-20010904/DTD/svg10.dtd'>
<svg fill-opacity="1" xmlns:xlink="http://www.w3.org/1999/xlink" color-rendering="auto" color-interpolation="auto" text-rendering="auto" stroke="black" stroke-linecap="square" stroke-miterlimit="10" shape-rendering="auto" stroke-opacity="1" fill="black" stroke-dasharray="none" font-weight="normal" stroke-width="1" xmlns="http://www.w3.org/2000/svg" font-family="&apos;Dialog&apos;" font-style="normal" stroke-linejoin="miter" font-size="12" stroke-dashoffset="0" image-rendering="auto" width="400" height="400" viewBox="-20 50 400 400">
  <!--Unicode Character 'REVERSED THUMBS DOWN SIGN' (U+1F593)-->
  <defs id="genericDefs" />
  <g>
    <g>
      <path d="M169.875 248.625 Q169.875 265.6406 162.2812 281.8125 Q160.5938 281.8125 156.9375 281.6719 Q153.2812 281.5312 151.4531 281.5312 Q141.1875 281.5312 137.5312 283.7812 Q134.5781 285.6094 126.7031 296.5781 Q117.4219 309.2344 115.4531 311.3438 L89.2969 339.0469 L82.2656 370.2656 Q69.3281 367.0312 63.4219 361.8281 Q56.1094 355.3594 56.1094 343.125 Q56.1094 335.8125 65.6719 317.6719 Q71.8594 306 73.5469 293.2031 Q24.1875 293.2031 24.1875 267.6094 Q24.1875 257.625 31.9219 249.4688 Q28.8281 244.5469 28.8281 240.1875 Q28.8281 229.3594 40.2188 226.2656 Q39.7969 223.875 39.7969 222.1875 Q39.7969 209.1094 54.9844 207.8438 Q54.7031 206.1562 54.7031 205.1719 Q54.7031 190.5469 79.0312 190.5469 L81.5625 190.5469 L86.4844 193.0781 Q95.7656 190.5469 102.7969 190.5469 Q105.4688 190.5469 110.6719 190.9688 Q127.5469 198.7031 142.0312 215.2969 L162.9844 215.2969 Q169.875 232.0312 169.875 248.625 ZM162.7031 247.0781 Q162.7031 235.4062 158.3438 222.6094 L138.9375 222.6094 Q126.9844 206.7188 108.8438 196.5938 Q101.1094 196.875 97.4531 197.2969 Q91.125 198.2812 86.4844 200.5312 Q80.2969 197.1562 75.5156 197.1562 Q61.7344 197.1562 61.7344 207.7031 Q61.7344 210.7969 62.1562 214.5938 Q46.5469 214.5938 46.5469 223.0312 Q46.5469 225 47.8125 231.0469 Q36.2812 233.4375 36.2812 239.7656 Q36.2812 243.8438 41.4844 250.3125 Q31.3594 259.1719 31.3594 268.4531 Q31.3594 286.3125 81.1406 286.3125 Q80.4375 307.2656 70.0312 325.125 Q63.4219 336.5156 63.4219 343.125 Q63.4219 356.3438 77.4844 361.125 L83.1094 335.1094 L111.375 305.0156 Q114.3281 301.9219 122.2031 291.0938 Q130.7812 279.2812 135.1406 276.8906 Q140.0625 274.2188 153.8438 274.2188 L157.9219 274.2188 Q162.7031 260.8594 162.7031 247.0781 Z" stroke="none" />
    </g>
  </g>
</svg>
